<svg preserveAspectRatio="none" overflow="visible" style="display: block;" width="20" height="20" viewBox="0 0 20 20" fill="none" xmlns="http://www.w3.org/2000/svg">
<g id="Icons / check">
<path id="check" fill-rule="evenodd" clip-rule="evenodd" d="M16.2528 6.8672C16.409 7.02345 16.4872 7.21318 16.4872 7.43639C16.4872 7.65961 16.409 7.84934 16.2528 8.00559L10.1925 14.0658L9.05416 15.2042C8.89791 15.3605 8.70817 15.4386 8.48496 15.4386C8.26175 15.4386 8.07201 15.3605 7.91577 15.2042L6.77737 14.0658L3.74724 11.0357C3.59099 10.8795 3.51286 10.6897 3.51286 10.4665C3.51286 10.2433 3.59099 10.0536 3.74724 9.89732L4.88563 8.75892C5.04188 8.60267 5.23161 8.52454 5.45483 8.52454C5.67804 8.52454 5.86777 8.60267 6.02402 8.75892L8.48496 11.2282L13.976 5.72878C14.1323 5.57253 14.322 5.4944 14.5452 5.4944C14.7684 5.4944 14.9582 5.57253 15.1144 5.72878L16.2528 6.8672Z" fill="#0B0C0C"/>
</g>
</svg>
